<svg width="58" height="58" viewBox="0 0 58 58" fill="none" xmlns="http://www.w3.org/2000/svg">
<rect width="58" height="58" rx="29" transform="matrix(-1 0 0 1 58 0)" fill="#717857"/>
<path d="M45.9142 27.5858C46.6953 28.3668 46.6953 29.6332 45.9142 30.4142L33.1863 43.1421C32.4052 43.9232 31.1389 43.9232 30.3579 43.1421C29.5768 42.3611 29.5768 41.0948 30.3579 40.3137L41.6716 29L30.3579 17.6863C29.5768 16.9052 29.5768 15.6389 30.3579 14.8579C31.1389 14.0768 32.4052 14.0768 33.1863 14.8579L45.9142 27.5858ZM13.5 29V27L44.5 27V29V31L13.5 31V29Z" fill="#F9F8F3"/>
</svg>
